<?xml version="1.0" encoding="utf-8" standalone="no"?>
<!DOCTYPE svg PUBLIC "-//W3C//DTD SVG 1.1//EN"
  "http://www.w3.org/Graphics/SVG/1.1/DTD/svg11.dtd">
<svg xmlns:xlink="http://www.w3.org/1999/xlink" width="316.289401pt" height="315.469656pt" viewBox="0 0 316.289401 315.469656" xmlns="http://www.w3.org/2000/svg" version="1.1">
 <metadata>
  <rdf:RDF xmlns:dc="http://purl.org/dc/elements/1.1/" xmlns:cc="http://creativecommons.org/ns#" xmlns:rdf="http://www.w3.org/1999/02/22-rdf-syntax-ns#">
   <cc:Work>
    <dc:type rdf:resource="http://purl.org/dc/dcmitype/StillImage"/>
    <dc:date>2024-02-20T09:51:35.757843</dc:date>
    <dc:format>image/svg+xml</dc:format>
    <dc:creator>
     <cc:Agent>
      <dc:title>Matplotlib v3.7.2, https://matplotlib.org/</dc:title>
     </cc:Agent>
    </dc:creator>
   </cc:Work>
  </rdf:RDF>
 </metadata>
 <defs>
  <style type="text/css">*{stroke-linejoin: round; stroke-linecap: butt}</style>
 </defs>
 <g id="figure_1">
  <g id="patch_1">
   <path d="M 0 315.469656 
L 316.289401 315.469656 
L 316.289401 0 
L 0 0 
L 0 315.469656 
z
" style="fill: none"/>
  </g>
  <g id="axes_1">
   <g id="patch_2">
    <path d="M 40.95 253.297656 
C 45.723656 253.297656 50.302438 251.401063 53.677922 248.025578 
C 57.053406 244.650094 58.95 240.071312 58.95 235.297656 
C 58.95 230.524 57.053406 225.945219 53.677922 222.569734 
C 50.302438 219.19425 45.723656 217.297656 40.95 217.297656 
C 36.176344 217.297656 31.597562 219.19425 28.222078 222.569734 
C 24.846594 225.945219 22.95 230.524 22.95 235.297656 
C 22.95 240.071312 24.846594 244.650094 28.222078 248.025578 
C 31.597562 251.401063 36.176344 253.297656 40.95 253.297656 
L 40.95 253.297656 
z
" clip-path="url(#p864b4937a2)" style="fill: none; stroke: #000000; stroke-width: 2; stroke-linejoin: miter"/>
   </g>
   <g id="line2d_1">
    <path d="M 171.45 104.797656 
L 171.45 59.797656 
L 249.392286 104.797656 
L 171.45 149.797656 
L 171.45 104.797656 
M 249.392286 104.797656 
" clip-path="url(#p864b4937a2)" style="fill: none; stroke: #000000; stroke-width: 2; stroke-linecap: round"/>
   </g>
   <g id="line2d_2">
    <path d="M 177.592786 82.297656 
L 184.792786 82.297656 
" clip-path="url(#p864b4937a2)" style="fill: none; stroke: #000000; stroke-width: 2; stroke-linecap: round"/>
   </g>
   <g id="line2d_3">
    <path d="M 177.592786 127.297656 
L 184.792786 127.297656 
" clip-path="url(#p864b4937a2)" style="fill: none; stroke: #000000; stroke-width: 2; stroke-linecap: round"/>
   </g>
   <g id="line2d_4">
    <path d="M 181.192786 130.897656 
L 181.192786 123.697656 
" clip-path="url(#p864b4937a2)" style="fill: none; stroke: #000000; stroke-width: 2; stroke-linecap: round"/>
   </g>
   <g id="line2d_5">
    <path d="M 148.95 82.297656 
L 171.45 82.297656 
" clip-path="url(#p864b4937a2)" style="fill: none; stroke: #000000; stroke-width: 2; stroke-linecap: round"/>
   </g>
   <g id="line2d_6">
    <path d="M 148.95 127.297656 
L 171.45 127.297656 
" clip-path="url(#p864b4937a2)" style="fill: none; stroke: #000000; stroke-width: 2; stroke-linecap: round"/>
   </g>
   <g id="line2d_7">
    <path d="M 249.392286 104.797656 
L 271.892286 104.797656 
" clip-path="url(#p864b4937a2)" style="fill: none; stroke: #000000; stroke-width: 2; stroke-linecap: round"/>
   </g>
   <g id="line2d_8">
    <path d="M 271.892286 104.797656 
L 285.392286 104.797656 
L 298.892286 104.797656 
" clip-path="url(#p864b4937a2)" style="fill: none; stroke: #000000; stroke-width: 2; stroke-linecap: round"/>
   </g>
   <g id="line2d_9">
    <path d="M 148.95 82.297656 
L 148.95 55.297656 
L 148.95 28.297656 
" clip-path="url(#p864b4937a2)" style="fill: none; stroke: #000000; stroke-width: 2; stroke-linecap: round"/>
   </g>
   <g id="line2d_10">
    <path d="M 148.95 28.297656 
L 112.95 28.297656 
L 109.95 37.297656 
L 103.95 19.297656 
L 97.95 37.297656 
L 91.95 19.297656 
L 85.95 37.297656 
L 79.95 19.297656 
L 76.95 28.297656 
L 40.95 28.297656 
" clip-path="url(#p864b4937a2)" style="fill: none; stroke: #000000; stroke-width: 2; stroke-linecap: round"/>
   </g>
   <g id="line2d_11">
    <path d="M 40.95 28.297656 
L 40.95 42.697656 
L 31.95 42.697656 
L 49.95 42.697656 
M 34.65 47.017656 
L 47.25 47.017656 
M 39.15 51.337656 
L 42.75 51.337656 
" clip-path="url(#p864b4937a2)" style="fill: none; stroke: #000000; stroke-width: 2; stroke-linecap: round"/>
   </g>
   <g id="line2d_12">
    <path d="M 148.95 28.297656 
L 192.421143 28.297656 
L 195.421143 19.297656 
L 201.421143 37.297656 
L 207.421143 19.297656 
L 213.421143 37.297656 
L 219.421143 19.297656 
L 225.421143 37.297656 
L 228.421143 28.297656 
L 271.892286 28.297656 
" clip-path="url(#p864b4937a2)" style="fill: none; stroke: #000000; stroke-width: 2; stroke-linecap: round"/>
   </g>
   <g id="line2d_13">
    <path d="M 271.892286 28.297656 
L 271.892286 66.547656 
L 271.892286 104.797656 
" clip-path="url(#p864b4937a2)" style="fill: none; stroke: #000000; stroke-width: 2; stroke-linecap: round"/>
   </g>
   <g id="line2d_14">
    <path d="M 148.95 127.297656 
L 112.95 127.297656 
L 109.95 136.297656 
L 103.95 118.297656 
L 97.95 136.297656 
L 91.95 118.297656 
L 85.95 136.297656 
L 79.95 118.297656 
L 76.95 127.297656 
L 40.95 127.297656 
" clip-path="url(#p864b4937a2)" style="fill: none; stroke: #000000; stroke-width: 2; stroke-linecap: round"/>
   </g>
   <g id="line2d_15">
    <path d="M 40.95 127.297656 
L 34.2 127.297656 
L 27.45 127.297656 
" clip-path="url(#p864b4937a2)" style="fill: none; stroke: #000000; stroke-width: 2; stroke-linecap: round"/>
   </g>
   <g id="line2d_16">
    <path d="M 148.95 127.297656 
L 148.95 154.297656 
L 148.95 181.297656 
" clip-path="url(#p864b4937a2)" style="fill: none; stroke: #000000; stroke-width: 2; stroke-linecap: round"/>
   </g>
   <g id="line2d_17">
    <path d="M 148.95 181.297656 
L 112.95 181.297656 
L 109.95 190.297656 
L 103.95 172.297656 
L 97.95 190.297656 
L 91.95 172.297656 
L 85.95 190.297656 
L 79.95 172.297656 
L 76.95 181.297656 
L 40.95 181.297656 
" clip-path="url(#p864b4937a2)" style="fill: none; stroke: #000000; stroke-width: 2; stroke-linecap: round"/>
   </g>
   <g id="line2d_18">
    <path d="M 40.95 181.297656 
L 40.95 217.297656 
L 40.95 217.297656 
M 40.95 253.297656 
L 40.95 253.297656 
L 40.95 289.297656 
" clip-path="url(#p864b4937a2)" style="fill: none; stroke: #000000; stroke-width: 2; stroke-linecap: round"/>
   </g>
   <g id="line2d_19">
    <path d="M 44.55 244.297656 
L 37.35 244.297656 
" clip-path="url(#p864b4937a2)" style="fill: none; stroke: #000000; stroke-width: 2; stroke-linecap: round"/>
   </g>
   <g id="line2d_20">
    <path d="M 40.95 222.697656 
L 40.95 229.897656 
" clip-path="url(#p864b4937a2)" style="fill: none; stroke: #000000; stroke-width: 2; stroke-linecap: round"/>
   </g>
   <g id="line2d_21">
    <path d="M 44.55 226.297656 
L 37.35 226.297656 
" clip-path="url(#p864b4937a2)" style="fill: none; stroke: #000000; stroke-width: 2; stroke-linecap: round"/>
   </g>
   <g id="line2d_22">
    <path d="M 40.95 289.297656 
L 40.95 289.297656 
L 31.95 289.297656 
L 49.95 289.297656 
M 34.65 293.617656 
L 47.25 293.617656 
M 39.15 297.937656 
L 42.75 297.937656 
" clip-path="url(#p864b4937a2)" style="fill: none; stroke: #000000; stroke-width: 2; stroke-linecap: round"/>
   </g>
   <g id="line2d_23">
    <path d="M 197.430762 74.557656 
L 197.430762 67.807656 
L 197.430762 61.057656 
" clip-path="url(#p864b4937a2)" style="fill: none; stroke: #000000; stroke-width: 2; stroke-linecap: round"/>
   </g>
   <g id="line2d_24">
    <path d="M 197.430762 135.037656 
L 197.430762 148.537656 
L 197.430762 162.037656 
" clip-path="url(#p864b4937a2)" style="fill: none; stroke: #000000; stroke-width: 2; stroke-linecap: round"/>
   </g>
   <g id="line2d_25">
    <path d="M 197.430762 162.037656 
L 197.430762 162.037656 
L 188.430762 162.037656 
L 206.430762 162.037656 
M 191.130762 166.357656 
L 203.730762 166.357656 
M 195.630762 170.677656 
L 199.230762 170.677656 
" clip-path="url(#p864b4937a2)" style="fill: none; stroke: #000000; stroke-width: 2; stroke-linecap: round"/>
   </g>
   <g id="patch_3">
    <path d="M 148.95 30.997656 
C 149.666048 30.997656 150.352866 30.713167 150.859188 30.206845 
C 151.365511 29.700522 151.65 29.013705 151.65 28.297656 
C 151.65 27.581608 151.365511 26.894791 150.859188 26.388468 
C 150.352866 25.882145 149.666048 25.597656 148.95 25.597656 
C 148.233952 25.597656 147.547134 25.882145 147.040812 26.388468 
C 146.534489 26.894791 146.25 27.581608 146.25 28.297656 
C 146.25 29.013705 146.534489 29.700522 147.040812 30.206845 
C 147.547134 30.713167 148.233952 30.997656 148.95 30.997656 
z
" clip-path="url(#p864b4937a2)" style="stroke: #000000; stroke-width: 2; stroke-linejoin: miter"/>
   </g>
   <g id="text_1">
    <!-- $R_G$ -->
    <g transform="translate(87.0125 13.098047) scale(0.125 -0.125)">
     <defs>
      <path id="DejaVuSans-Oblique-52" d="M 1613 4147 
L 1294 2491 
L 2106 2491 
Q 2584 2491 2879 2755 
Q 3175 3019 3175 3444 
Q 3175 3784 2976 3965 
Q 2778 4147 2406 4147 
L 1613 4147 
z
M 2772 2241 
Q 2972 2194 3105 2009 
Q 3238 1825 3413 1275 
L 3809 0 
L 3144 0 
L 2778 1197 
Q 2638 1659 2453 1815 
Q 2269 1972 1888 1972 
L 1191 1972 
L 806 0 
L 172 0 
L 1081 4666 
L 2503 4666 
Q 3150 4666 3495 4373 
Q 3841 4081 3841 3531 
Q 3841 3044 3547 2687 
Q 3253 2331 2772 2241 
z
" transform="scale(0.015625)"/>
      <path id="DejaVuSans-Oblique-47" d="M 3494 697 
L 3738 1919 
L 2700 1919 
L 2797 2438 
L 4453 2438 
L 4050 384 
Q 3634 156 3143 32 
Q 2653 -91 2156 -91 
Q 1278 -91 783 396 
Q 288 884 288 1753 
Q 288 2475 589 3126 
Q 891 3778 1422 4213 
Q 1756 4484 2153 4617 
Q 2550 4750 3034 4750 
Q 3472 4750 3873 4639 
Q 4275 4528 4641 4306 
L 4513 3634 
Q 4231 3928 3853 4083 
Q 3475 4238 3047 4238 
Q 2550 4238 2172 4048 
Q 1794 3859 1497 3463 
Q 1244 3125 1098 2667 
Q 953 2209 953 1734 
Q 953 1081 1287 751 
Q 1622 422 2284 422 
Q 2616 422 2925 492 
Q 3234 563 3494 697 
z
" transform="scale(0.015625)"/>
     </defs>
     <use xlink:href="#DejaVuSans-Oblique-52" transform="translate(0 0.09375)"/>
     <use xlink:href="#DejaVuSans-Oblique-47" transform="translate(69.482422 -16.3125) scale(0.7)"/>
    </g>
   </g>
   <g id="text_2">
    <!-- $R_f$ -->
    <g transform="translate(204.358643 13.098047) scale(0.125 -0.125)">
     <defs>
      <path id="DejaVuSans-Oblique-66" d="M 3059 4863 
L 2969 4384 
L 2419 4384 
Q 2106 4384 1964 4261 
Q 1822 4138 1753 3809 
L 1691 3500 
L 2638 3500 
L 2553 3053 
L 1606 3053 
L 1013 0 
L 434 0 
L 1031 3053 
L 481 3053 
L 563 3500 
L 1113 3500 
L 1159 3744 
Q 1278 4363 1576 4613 
Q 1875 4863 2516 4863 
L 3059 4863 
z
" transform="scale(0.015625)"/>
     </defs>
     <use xlink:href="#DejaVuSans-Oblique-52" transform="translate(0 0.09375)"/>
     <use xlink:href="#DejaVuSans-Oblique-66" transform="translate(69.482422 -16.3125) scale(0.7)"/>
    </g>
   </g>
   <g id="patch_4">
    <path d="M 271.892286 107.497656 
C 272.608335 107.497656 273.295152 107.213167 273.801475 106.706845 
C 274.307797 106.200522 274.592286 105.513705 274.592286 104.797656 
C 274.592286 104.081608 274.307797 103.394791 273.801475 102.888468 
C 273.295152 102.382145 272.608335 102.097656 271.892286 102.097656 
C 271.176238 102.097656 270.489421 102.382145 269.983098 102.888468 
C 269.476775 103.394791 269.192286 104.081608 269.192286 104.797656 
C 269.192286 105.513705 269.476775 106.200522 269.983098 106.706845 
C 270.489421 107.213167 271.176238 107.497656 271.892286 107.497656 
z
" clip-path="url(#p864b4937a2)" style="stroke: #000000; stroke-width: 2; stroke-linejoin: miter"/>
   </g>
   <g id="patch_5">
    <path d="M 148.95 129.997656 
C 149.666048 129.997656 150.352866 129.713167 150.859188 129.206845 
C 151.365511 128.700522 151.65 128.013705 151.65 127.297656 
C 151.65 126.581608 151.365511 125.894791 150.859188 125.388468 
C 150.352866 124.882145 149.666048 124.597656 148.95 124.597656 
C 148.233952 124.597656 147.547134 124.882145 147.040812 125.388468 
C 146.534489 125.894791 146.25 126.581608 146.25 127.297656 
C 146.25 128.013705 146.534489 128.700522 147.040812 129.206845 
C 147.547134 129.713167 148.233952 129.997656 148.95 129.997656 
z
" clip-path="url(#p864b4937a2)" style="stroke: #000000; stroke-width: 2; stroke-linejoin: miter"/>
   </g>
   <g id="text_3">
    <!-- $R_2$ -->
    <g transform="translate(88.9875 112.098047) scale(0.125 -0.125)">
     <defs>
      <path id="DejaVuSans-32" d="M 1228 531 
L 3431 531 
L 3431 0 
L 469 0 
L 469 531 
Q 828 903 1448 1529 
Q 2069 2156 2228 2338 
Q 2531 2678 2651 2914 
Q 2772 3150 2772 3378 
Q 2772 3750 2511 3984 
Q 2250 4219 1831 4219 
Q 1534 4219 1204 4116 
Q 875 4013 500 3803 
L 500 4441 
Q 881 4594 1212 4672 
Q 1544 4750 1819 4750 
Q 2544 4750 2975 4387 
Q 3406 4025 3406 3419 
Q 3406 3131 3298 2873 
Q 3191 2616 2906 2266 
Q 2828 2175 2409 1742 
Q 1991 1309 1228 531 
z
" transform="scale(0.015625)"/>
     </defs>
     <use xlink:href="#DejaVuSans-Oblique-52" transform="translate(0 0.09375)"/>
     <use xlink:href="#DejaVuSans-32" transform="translate(69.482422 -16.3125) scale(0.7)"/>
    </g>
   </g>
   <g id="text_4">
    <!-- $V_{REF}$ -->
    <g transform="translate(21.3875 121.098047) scale(0.125 -0.125)">
     <defs>
      <path id="DejaVuSans-Oblique-56" d="M 1319 0 
L 500 4666 
L 1119 4666 
L 1797 653 
L 4063 4666 
L 4750 4666 
L 2053 0 
L 1319 0 
z
" transform="scale(0.015625)"/>
      <path id="DejaVuSans-Oblique-45" d="M 1081 4666 
L 4031 4666 
L 3928 4134 
L 1606 4134 
L 1338 2753 
L 3566 2753 
L 3463 2222 
L 1234 2222 
L 909 531 
L 3284 531 
L 3181 0 
L 172 0 
L 1081 4666 
z
" transform="scale(0.015625)"/>
      <path id="DejaVuSans-Oblique-46" d="M 1081 4666 
L 3756 4666 
L 3653 4134 
L 1606 4134 
L 1338 2759 
L 3188 2759 
L 3084 2228 
L 1234 2228 
L 800 0 
L 172 0 
L 1081 4666 
z
" transform="scale(0.015625)"/>
     </defs>
     <use xlink:href="#DejaVuSans-Oblique-56" transform="translate(0 0.09375)"/>
     <use xlink:href="#DejaVuSans-Oblique-52" transform="translate(68.408203 -16.3125) scale(0.7)"/>
     <use xlink:href="#DejaVuSans-Oblique-45" transform="translate(117.045898 -16.3125) scale(0.7)"/>
     <use xlink:href="#DejaVuSans-Oblique-46" transform="translate(161.274414 -16.3125) scale(0.7)"/>
    </g>
   </g>
   <g id="patch_6">
    <path d="M 148.95 129.997656 
C 149.666048 129.997656 150.352866 129.713167 150.859188 129.206845 
C 151.365511 128.700522 151.65 128.013705 151.65 127.297656 
C 151.65 126.581608 151.365511 125.894791 150.859188 125.388468 
C 150.352866 124.882145 149.666048 124.597656 148.95 124.597656 
C 148.233952 124.597656 147.547134 124.882145 147.040812 125.388468 
C 146.534489 125.894791 146.25 126.581608 146.25 127.297656 
C 146.25 128.013705 146.534489 128.700522 147.040812 129.206845 
C 147.547134 129.713167 148.233952 129.997656 148.95 129.997656 
z
" clip-path="url(#p864b4937a2)" style="stroke: #000000; stroke-width: 2; stroke-linejoin: miter"/>
   </g>
   <g id="patch_7">
    <path d="M 148.95 183.997656 
C 149.666048 183.997656 150.352866 183.713167 150.859188 183.206845 
C 151.365511 182.700522 151.65 182.013705 151.65 181.297656 
C 151.65 180.581608 151.365511 179.894791 150.859188 179.388468 
C 150.352866 178.882145 149.666048 178.597656 148.95 178.597656 
C 148.233952 178.597656 147.547134 178.882145 147.040812 179.388468 
C 146.534489 179.894791 146.25 180.581608 146.25 181.297656 
C 146.25 182.013705 146.534489 182.700522 147.040812 183.206845 
C 147.547134 183.713167 148.233952 183.997656 148.95 183.997656 
z
" clip-path="url(#p864b4937a2)" style="stroke: #000000; stroke-width: 2; stroke-linejoin: miter"/>
   </g>
   <g id="text_5">
    <!-- $R_1$ -->
    <g transform="translate(88.9875 166.098047) scale(0.125 -0.125)">
     <defs>
      <path id="DejaVuSans-31" d="M 794 531 
L 1825 531 
L 1825 4091 
L 703 3866 
L 703 4441 
L 1819 4666 
L 2450 4666 
L 2450 531 
L 3481 531 
L 3481 0 
L 794 0 
L 794 531 
z
" transform="scale(0.015625)"/>
     </defs>
     <use xlink:href="#DejaVuSans-Oblique-52" transform="translate(0 0.09375)"/>
     <use xlink:href="#DejaVuSans-31" transform="translate(69.482422 -16.3125) scale(0.7)"/>
    </g>
   </g>
   <g id="text_6">
    <!-- $v_{in}$ -->
    <g transform="translate(3.6 238.746875) scale(0.125 -0.125)">
     <defs>
      <path id="DejaVuSans-Oblique-76" d="M 459 3500 
L 1069 3500 
L 1581 525 
L 3256 3500 
L 3866 3500 
L 1875 0 
L 1100 0 
L 459 3500 
z
" transform="scale(0.015625)"/>
      <path id="DejaVuSans-Oblique-69" d="M 1172 4863 
L 1747 4863 
L 1606 4134 
L 1031 4134 
L 1172 4863 
z
M 909 3500 
L 1484 3500 
L 800 0 
L 225 0 
L 909 3500 
z
" transform="scale(0.015625)"/>
      <path id="DejaVuSans-Oblique-6e" d="M 3566 2113 
L 3156 0 
L 2578 0 
L 2988 2091 
Q 3016 2238 3031 2350 
Q 3047 2463 3047 2528 
Q 3047 2791 2881 2937 
Q 2716 3084 2419 3084 
Q 1956 3084 1622 2776 
Q 1288 2469 1184 1941 
L 800 0 
L 225 0 
L 903 3500 
L 1478 3500 
L 1363 2950 
Q 1603 3253 1940 3418 
Q 2278 3584 2650 3584 
Q 3113 3584 3367 3334 
Q 3622 3084 3622 2631 
Q 3622 2519 3608 2391 
Q 3594 2263 3566 2113 
z
" transform="scale(0.015625)"/>
     </defs>
     <use xlink:href="#DejaVuSans-Oblique-76" transform="translate(0 0.3125)"/>
     <use xlink:href="#DejaVuSans-Oblique-69" transform="translate(59.179688 -16.09375) scale(0.7)"/>
     <use xlink:href="#DejaVuSans-Oblique-6e" transform="translate(78.62793 -16.09375) scale(0.7)"/>
    </g>
   </g>
   <g id="text_7">
    <!-- $v_{cc}$ -->
    <g transform="translate(188.743262 54.858047) scale(0.125 -0.125)">
     <defs>
      <path id="DejaVuSans-Oblique-63" d="M 3431 3366 
L 3316 2797 
Q 3109 2947 2876 3022 
Q 2644 3097 2394 3097 
Q 2119 3097 1870 3000 
Q 1622 2903 1453 2725 
Q 1184 2453 1037 2087 
Q 891 1722 891 1331 
Q 891 859 1127 628 
Q 1363 397 1844 397 
Q 2081 397 2348 469 
Q 2616 541 2906 684 
L 2797 116 
Q 2547 13 2283 -39 
Q 2019 -91 1741 -91 
Q 1044 -91 669 257 
Q 294 606 294 1253 
Q 294 1797 489 2255 
Q 684 2713 1069 3078 
Q 1331 3328 1684 3456 
Q 2038 3584 2456 3584 
Q 2700 3584 2940 3529 
Q 3181 3475 3431 3366 
z
" transform="scale(0.015625)"/>
     </defs>
     <use xlink:href="#DejaVuSans-Oblique-76" transform="translate(0 0.3125)"/>
     <use xlink:href="#DejaVuSans-Oblique-63" transform="translate(59.179688 -16.09375) scale(0.7)"/>
     <use xlink:href="#DejaVuSans-Oblique-63" transform="translate(97.666016 -16.09375) scale(0.7)"/>
    </g>
   </g>
  </g>
 </g>
 <defs>
  <clipPath id="p864b4937a2">
   <rect x="9.152886" y="5.365656" width="303.536515" height="306.504"/>
  </clipPath>
 </defs>
</svg>
