<?xml version="1.0" encoding="utf-8" standalone="no"?>
<!DOCTYPE svg PUBLIC "-//W3C//DTD SVG 1.1//EN"
  "http://www.w3.org/Graphics/SVG/1.1/DTD/svg11.dtd">
<svg xmlns:xlink="http://www.w3.org/1999/xlink" width="387.164401pt" height="169.939656pt" viewBox="0 0 387.164401 169.939656" xmlns="http://www.w3.org/2000/svg" version="1.1">
 <metadata>
  <rdf:RDF xmlns:dc="http://purl.org/dc/elements/1.1/" xmlns:cc="http://creativecommons.org/ns#" xmlns:rdf="http://www.w3.org/1999/02/22-rdf-syntax-ns#">
   <cc:Work>
    <dc:type rdf:resource="http://purl.org/dc/dcmitype/StillImage"/>
    <dc:date>2024-02-20T12:42:27.105283</dc:date>
    <dc:format>image/svg+xml</dc:format>
    <dc:creator>
     <cc:Agent>
      <dc:title>Matplotlib v3.7.2, https://matplotlib.org/</dc:title>
     </cc:Agent>
    </dc:creator>
   </cc:Work>
  </rdf:RDF>
 </metadata>
 <defs>
  <style type="text/css">*{stroke-linejoin: round; stroke-linecap: butt}</style>
 </defs>
 <g id="figure_1">
  <g id="patch_1">
   <path d="M 0 169.939656 
L 387.164401 169.939656 
L 387.164401 0 
L 0 0 
L 0 169.939656 
z
" style="fill: none"/>
  </g>
  <g id="axes_1">
   <g id="patch_2">
    <path d="M 40.95 100.297656 
C 45.723656 100.297656 50.302438 98.401063 53.677922 95.025578 
C 57.053406 91.650094 58.95 87.071312 58.95 82.297656 
C 58.95 77.524 57.053406 72.945219 53.677922 69.569734 
C 50.302438 66.19425 45.723656 64.297656 40.95 64.297656 
C 36.176344 64.297656 31.597562 66.19425 28.222078 69.569734 
C 24.846594 72.945219 22.95 77.524 22.95 82.297656 
C 22.95 87.071312 24.846594 91.650094 28.222078 95.025578 
C 31.597562 98.401063 36.176344 100.297656 40.95 100.297656 
L 40.95 100.297656 
z
" clip-path="url(#p2c6e49afdc)" style="fill: none; stroke: #000000; stroke-width: 2; stroke-linejoin: miter"/>
   </g>
   <g id="line2d_1">
    <path d="M 238.95 104.797656 
L 238.95 59.797656 
L 316.892286 104.797656 
L 238.95 149.797656 
L 238.95 104.797656 
M 316.892286 104.797656 
" clip-path="url(#p2c6e49afdc)" style="fill: none; stroke: #000000; stroke-width: 2; stroke-linecap: round"/>
   </g>
   <g id="line2d_2">
    <path d="M 245.092786 82.297656 
L 252.292786 82.297656 
" clip-path="url(#p2c6e49afdc)" style="fill: none; stroke: #000000; stroke-width: 2; stroke-linecap: round"/>
   </g>
   <g id="line2d_3">
    <path d="M 245.092786 127.297656 
L 252.292786 127.297656 
" clip-path="url(#p2c6e49afdc)" style="fill: none; stroke: #000000; stroke-width: 2; stroke-linecap: round"/>
   </g>
   <g id="line2d_4">
    <path d="M 248.692786 130.897656 
L 248.692786 123.697656 
" clip-path="url(#p2c6e49afdc)" style="fill: none; stroke: #000000; stroke-width: 2; stroke-linecap: round"/>
   </g>
   <g id="line2d_5">
    <path d="M 216.45 82.297656 
L 238.95 82.297656 
" clip-path="url(#p2c6e49afdc)" style="fill: none; stroke: #000000; stroke-width: 2; stroke-linecap: round"/>
   </g>
   <g id="line2d_6">
    <path d="M 216.45 127.297656 
L 238.95 127.297656 
" clip-path="url(#p2c6e49afdc)" style="fill: none; stroke: #000000; stroke-width: 2; stroke-linecap: round"/>
   </g>
   <g id="line2d_7">
    <path d="M 316.892286 104.797656 
L 339.392286 104.797656 
" clip-path="url(#p2c6e49afdc)" style="fill: none; stroke: #000000; stroke-width: 2; stroke-linecap: round"/>
   </g>
   <g id="line2d_8">
    <path d="M 339.392286 104.797656 
L 352.892286 104.797656 
L 366.392286 104.797656 
" clip-path="url(#p2c6e49afdc)" style="fill: none; stroke: #000000; stroke-width: 2; stroke-linecap: round"/>
   </g>
   <g id="line2d_9">
    <path d="M 216.45 82.297656 
L 209.7 82.297656 
L 202.95 82.297656 
" clip-path="url(#p2c6e49afdc)" style="fill: none; stroke: #000000; stroke-width: 2; stroke-linecap: round"/>
   </g>
   <g id="line2d_10">
    <path d="M 202.95 82.297656 
L 202.95 55.297656 
L 202.95 28.297656 
" clip-path="url(#p2c6e49afdc)" style="fill: none; stroke: #000000; stroke-width: 2; stroke-linecap: round"/>
   </g>
   <g id="line2d_11">
    <path d="M 202.95 28.297656 
L 166.95 28.297656 
L 163.95 37.297656 
L 157.95 19.297656 
L 151.95 37.297656 
L 145.95 19.297656 
L 139.95 37.297656 
L 133.95 19.297656 
L 130.95 28.297656 
L 94.95 28.297656 
" clip-path="url(#p2c6e49afdc)" style="fill: none; stroke: #000000; stroke-width: 2; stroke-linecap: round"/>
   </g>
   <g id="line2d_12">
    <path d="M 94.95 28.297656 
L 67.95 28.297656 
L 40.95 28.297656 
" clip-path="url(#p2c6e49afdc)" style="fill: none; stroke: #000000; stroke-width: 2; stroke-linecap: round"/>
   </g>
   <g id="line2d_13">
    <path d="M 40.95 28.297656 
L 40.95 64.297656 
L 40.95 64.297656 
M 40.95 100.297656 
L 40.95 100.297656 
L 40.95 136.297656 
" clip-path="url(#p2c6e49afdc)" style="fill: none; stroke: #000000; stroke-width: 2; stroke-linecap: round"/>
   </g>
   <g id="line2d_14">
    <path d="M 44.55 91.297656 
L 37.35 91.297656 
" clip-path="url(#p2c6e49afdc)" style="fill: none; stroke: #000000; stroke-width: 2; stroke-linecap: round"/>
   </g>
   <g id="line2d_15">
    <path d="M 40.95 69.697656 
L 40.95 76.897656 
" clip-path="url(#p2c6e49afdc)" style="fill: none; stroke: #000000; stroke-width: 2; stroke-linecap: round"/>
   </g>
   <g id="line2d_16">
    <path d="M 44.55 73.297656 
L 37.35 73.297656 
" clip-path="url(#p2c6e49afdc)" style="fill: none; stroke: #000000; stroke-width: 2; stroke-linecap: round"/>
   </g>
   <g id="line2d_17">
    <path d="M 40.95 136.297656 
L 40.95 150.697656 
L 31.95 150.697656 
L 49.95 150.697656 
M 34.65 155.017656 
L 47.25 155.017656 
M 39.15 159.337656 
L 42.75 159.337656 
" clip-path="url(#p2c6e49afdc)" style="fill: none; stroke: #000000; stroke-width: 2; stroke-linecap: round"/>
   </g>
   <g id="line2d_18">
    <path d="M 202.95 28.297656 
L 253.171143 28.297656 
L 256.171143 19.297656 
L 262.171143 37.297656 
L 268.171143 19.297656 
L 274.171143 37.297656 
L 280.171143 19.297656 
L 286.171143 37.297656 
L 289.171143 28.297656 
L 339.392286 28.297656 
" clip-path="url(#p2c6e49afdc)" style="fill: none; stroke: #000000; stroke-width: 2; stroke-linecap: round"/>
   </g>
   <g id="line2d_19">
    <path d="M 339.392286 28.297656 
L 339.392286 66.547656 
L 339.392286 104.797656 
" clip-path="url(#p2c6e49afdc)" style="fill: none; stroke: #000000; stroke-width: 2; stroke-linecap: round"/>
   </g>
   <g id="line2d_20">
    <path d="M 216.45 82.297656 
L 209.7 82.297656 
L 202.95 82.297656 
" clip-path="url(#p2c6e49afdc)" style="fill: none; stroke: #000000; stroke-width: 2; stroke-linecap: round"/>
   </g>
   <g id="line2d_21">
    <path d="M 202.95 82.297656 
L 166.95 82.297656 
L 163.95 91.297656 
L 157.95 73.297656 
L 151.95 91.297656 
L 145.95 73.297656 
L 139.95 91.297656 
L 133.95 73.297656 
L 130.95 82.297656 
L 94.95 82.297656 
" clip-path="url(#p2c6e49afdc)" style="fill: none; stroke: #000000; stroke-width: 2; stroke-linecap: round"/>
   </g>
   <g id="line2d_22">
    <path d="M 94.95 82.297656 
L 94.95 96.697656 
L 85.95 96.697656 
L 103.95 96.697656 
M 88.65 101.017656 
L 101.25 101.017656 
M 93.15 105.337656 
L 96.75 105.337656 
" clip-path="url(#p2c6e49afdc)" style="fill: none; stroke: #000000; stroke-width: 2; stroke-linecap: round"/>
   </g>
   <g id="line2d_23">
    <path d="M 216.45 127.297656 
L 209.7 127.297656 
L 202.95 127.297656 
" clip-path="url(#p2c6e49afdc)" style="fill: none; stroke: #000000; stroke-width: 2; stroke-linecap: round"/>
   </g>
   <g id="line2d_24">
    <path d="M 202.95 127.297656 
L 202.95 134.047656 
L 202.95 140.797656 
" clip-path="url(#p2c6e49afdc)" style="fill: none; stroke: #000000; stroke-width: 2; stroke-linecap: round"/>
   </g>
   <g id="line2d_25">
    <path d="M 202.95 140.797656 
L 202.95 140.797656 
L 193.95 140.797656 
L 211.95 140.797656 
M 196.65 145.117656 
L 209.25 145.117656 
M 201.15 149.437656 
L 204.75 149.437656 
" clip-path="url(#p2c6e49afdc)" style="fill: none; stroke: #000000; stroke-width: 2; stroke-linecap: round"/>
   </g>
   <g id="patch_3">
    <path d="M 202.95 30.997656 
C 203.666048 30.997656 204.352866 30.713167 204.859188 30.206845 
C 205.365511 29.700522 205.65 29.013705 205.65 28.297656 
C 205.65 27.581608 205.365511 26.894791 204.859188 26.388468 
C 204.352866 25.882145 203.666048 25.597656 202.95 25.597656 
C 202.233952 25.597656 201.547134 25.882145 201.040812 26.388468 
C 200.534489 26.894791 200.25 27.581608 200.25 28.297656 
C 200.25 29.013705 200.534489 29.700522 201.040812 30.206845 
C 201.547134 30.713167 202.233952 30.997656 202.95 30.997656 
z
" clip-path="url(#p2c6e49afdc)" style="stroke: #000000; stroke-width: 2; stroke-linejoin: miter"/>
   </g>
   <g id="text_1">
    <!-- $R_{G1}$ -->
    <g transform="translate(138.2625 13.098047) scale(0.125 -0.125)">
     <defs>
      <path id="DejaVuSans-Oblique-52" d="M 1613 4147 
L 1294 2491 
L 2106 2491 
Q 2584 2491 2879 2755 
Q 3175 3019 3175 3444 
Q 3175 3784 2976 3965 
Q 2778 4147 2406 4147 
L 1613 4147 
z
M 2772 2241 
Q 2972 2194 3105 2009 
Q 3238 1825 3413 1275 
L 3809 0 
L 3144 0 
L 2778 1197 
Q 2638 1659 2453 1815 
Q 2269 1972 1888 1972 
L 1191 1972 
L 806 0 
L 172 0 
L 1081 4666 
L 2503 4666 
Q 3150 4666 3495 4373 
Q 3841 4081 3841 3531 
Q 3841 3044 3547 2687 
Q 3253 2331 2772 2241 
z
" transform="scale(0.015625)"/>
      <path id="DejaVuSans-Oblique-47" d="M 3494 697 
L 3738 1919 
L 2700 1919 
L 2797 2438 
L 4453 2438 
L 4050 384 
Q 3634 156 3143 32 
Q 2653 -91 2156 -91 
Q 1278 -91 783 396 
Q 288 884 288 1753 
Q 288 2475 589 3126 
Q 891 3778 1422 4213 
Q 1756 4484 2153 4617 
Q 2550 4750 3034 4750 
Q 3472 4750 3873 4639 
Q 4275 4528 4641 4306 
L 4513 3634 
Q 4231 3928 3853 4083 
Q 3475 4238 3047 4238 
Q 2550 4238 2172 4048 
Q 1794 3859 1497 3463 
Q 1244 3125 1098 2667 
Q 953 2209 953 1734 
Q 953 1081 1287 751 
Q 1622 422 2284 422 
Q 2616 422 2925 492 
Q 3234 563 3494 697 
z
" transform="scale(0.015625)"/>
      <path id="DejaVuSans-31" d="M 794 531 
L 1825 531 
L 1825 4091 
L 703 3866 
L 703 4441 
L 1819 4666 
L 2450 4666 
L 2450 531 
L 3481 531 
L 3481 0 
L 794 0 
L 794 531 
z
" transform="scale(0.015625)"/>
     </defs>
     <use xlink:href="#DejaVuSans-Oblique-52" transform="translate(0 0.09375)"/>
     <use xlink:href="#DejaVuSans-Oblique-47" transform="translate(69.482422 -16.3125) scale(0.7)"/>
     <use xlink:href="#DejaVuSans-31" transform="translate(123.725586 -16.3125) scale(0.7)"/>
    </g>
   </g>
   <g id="text_2">
    <!-- $v_{in}$ -->
    <g transform="translate(3.6 85.746875) scale(0.125 -0.125)">
     <defs>
      <path id="DejaVuSans-Oblique-76" d="M 459 3500 
L 1069 3500 
L 1581 525 
L 3256 3500 
L 3866 3500 
L 1875 0 
L 1100 0 
L 459 3500 
z
" transform="scale(0.015625)"/>
      <path id="DejaVuSans-Oblique-69" d="M 1172 4863 
L 1747 4863 
L 1606 4134 
L 1031 4134 
L 1172 4863 
z
M 909 3500 
L 1484 3500 
L 800 0 
L 225 0 
L 909 3500 
z
" transform="scale(0.015625)"/>
      <path id="DejaVuSans-Oblique-6e" d="M 3566 2113 
L 3156 0 
L 2578 0 
L 2988 2091 
Q 3016 2238 3031 2350 
Q 3047 2463 3047 2528 
Q 3047 2791 2881 2937 
Q 2716 3084 2419 3084 
Q 1956 3084 1622 2776 
Q 1288 2469 1184 1941 
L 800 0 
L 225 0 
L 903 3500 
L 1478 3500 
L 1363 2950 
Q 1603 3253 1940 3418 
Q 2278 3584 2650 3584 
Q 3113 3584 3367 3334 
Q 3622 3084 3622 2631 
Q 3622 2519 3608 2391 
Q 3594 2263 3566 2113 
z
" transform="scale(0.015625)"/>
     </defs>
     <use xlink:href="#DejaVuSans-Oblique-76" transform="translate(0 0.3125)"/>
     <use xlink:href="#DejaVuSans-Oblique-69" transform="translate(59.179688 -16.09375) scale(0.7)"/>
     <use xlink:href="#DejaVuSans-Oblique-6e" transform="translate(78.62793 -16.09375) scale(0.7)"/>
    </g>
   </g>
   <g id="text_3">
    <!-- $R_f$ -->
    <g transform="translate(265.108643 13.098047) scale(0.125 -0.125)">
     <defs>
      <path id="DejaVuSans-Oblique-66" d="M 3059 4863 
L 2969 4384 
L 2419 4384 
Q 2106 4384 1964 4261 
Q 1822 4138 1753 3809 
L 1691 3500 
L 2638 3500 
L 2553 3053 
L 1606 3053 
L 1013 0 
L 434 0 
L 1031 3053 
L 481 3053 
L 563 3500 
L 1113 3500 
L 1159 3744 
Q 1278 4363 1576 4613 
Q 1875 4863 2516 4863 
L 3059 4863 
z
" transform="scale(0.015625)"/>
     </defs>
     <use xlink:href="#DejaVuSans-Oblique-52" transform="translate(0 0.09375)"/>
     <use xlink:href="#DejaVuSans-Oblique-66" transform="translate(69.482422 -16.3125) scale(0.7)"/>
    </g>
   </g>
   <g id="patch_4">
    <path d="M 339.392286 107.497656 
C 340.108335 107.497656 340.795152 107.213167 341.301475 106.706845 
C 341.807797 106.200522 342.092286 105.513705 342.092286 104.797656 
C 342.092286 104.081608 341.807797 103.394791 341.301475 102.888468 
C 340.795152 102.382145 340.108335 102.097656 339.392286 102.097656 
C 338.676238 102.097656 337.989421 102.382145 337.483098 102.888468 
C 336.976775 103.394791 336.692286 104.081608 336.692286 104.797656 
C 336.692286 105.513705 336.976775 106.200522 337.483098 106.706845 
C 337.989421 107.213167 338.676238 107.497656 339.392286 107.497656 
z
" clip-path="url(#p2c6e49afdc)" style="stroke: #000000; stroke-width: 2; stroke-linejoin: miter"/>
   </g>
   <g id="patch_5">
    <path d="M 202.95 84.997656 
C 203.666048 84.997656 204.352866 84.713167 204.859188 84.206845 
C 205.365511 83.700522 205.65 83.013705 205.65 82.297656 
C 205.65 81.581608 205.365511 80.894791 204.859188 80.388468 
C 204.352866 79.882145 203.666048 79.597656 202.95 79.597656 
C 202.233952 79.597656 201.547134 79.882145 201.040812 80.388468 
C 200.534489 80.894791 200.25 81.581608 200.25 82.297656 
C 200.25 83.013705 200.534489 83.700522 201.040812 84.206845 
C 201.547134 84.713167 202.233952 84.997656 202.95 84.997656 
z
" clip-path="url(#p2c6e49afdc)" style="stroke: #000000; stroke-width: 2; stroke-linejoin: miter"/>
   </g>
   <g id="text_4">
    <!-- $R_{G2}$ -->
    <g transform="translate(138.2625 67.098047) scale(0.125 -0.125)">
     <defs>
      <path id="DejaVuSans-32" d="M 1228 531 
L 3431 531 
L 3431 0 
L 469 0 
L 469 531 
Q 828 903 1448 1529 
Q 2069 2156 2228 2338 
Q 2531 2678 2651 2914 
Q 2772 3150 2772 3378 
Q 2772 3750 2511 3984 
Q 2250 4219 1831 4219 
Q 1534 4219 1204 4116 
Q 875 4013 500 3803 
L 500 4441 
Q 881 4594 1212 4672 
Q 1544 4750 1819 4750 
Q 2544 4750 2975 4387 
Q 3406 4025 3406 3419 
Q 3406 3131 3298 2873 
Q 3191 2616 2906 2266 
Q 2828 2175 2409 1742 
Q 1991 1309 1228 531 
z
" transform="scale(0.015625)"/>
     </defs>
     <use xlink:href="#DejaVuSans-Oblique-52" transform="translate(0 0.09375)"/>
     <use xlink:href="#DejaVuSans-Oblique-47" transform="translate(69.482422 -16.3125) scale(0.7)"/>
     <use xlink:href="#DejaVuSans-32" transform="translate(123.725586 -16.3125) scale(0.7)"/>
    </g>
   </g>
  </g>
 </g>
 <defs>
  <clipPath id="p2c6e49afdc">
   <rect x="5.777886" y="12.295656" width="377.786515" height="154.044"/>
  </clipPath>
 </defs>
</svg>
