<?xml version="1.0" encoding="utf-8" standalone="no"?>
<!DOCTYPE svg PUBLIC "-//W3C//DTD SVG 1.1//EN"
  "http://www.w3.org/Graphics/SVG/1.1/DTD/svg11.dtd">
<svg xmlns:xlink="http://www.w3.org/1999/xlink" width="316.289401pt" height="363.204pt" viewBox="0 0 316.289401 363.204" xmlns="http://www.w3.org/2000/svg" version="1.1">
 <metadata>
  <rdf:RDF xmlns:dc="http://purl.org/dc/elements/1.1/" xmlns:cc="http://creativecommons.org/ns#" xmlns:rdf="http://www.w3.org/1999/02/22-rdf-syntax-ns#">
   <cc:Work>
    <dc:type rdf:resource="http://purl.org/dc/dcmitype/StillImage"/>
    <dc:date>2024-02-20T12:12:21.809947</dc:date>
    <dc:format>image/svg+xml</dc:format>
    <dc:creator>
     <cc:Agent>
      <dc:title>Matplotlib v3.7.2, https://matplotlib.org/</dc:title>
     </cc:Agent>
    </dc:creator>
   </cc:Work>
  </rdf:RDF>
 </metadata>
 <defs>
  <style type="text/css">*{stroke-linejoin: round; stroke-linecap: butt}</style>
 </defs>
 <g id="figure_1">
  <g id="patch_1">
   <path d="M 0 363.204 
L 316.289401 363.204 
L 316.289401 -0 
L 0 -0 
L 0 363.204 
z
" style="fill: none"/>
  </g>
  <g id="axes_1">
   <g id="patch_2">
    <path d="M 40.95 100.782 
C 45.723656 100.782 50.302438 98.885406 53.677922 95.509922 
C 57.053406 92.134438 58.95 87.555656 58.95 82.782 
C 58.95 78.008344 57.053406 73.429562 53.677922 70.054078 
C 50.302438 66.678594 45.723656 64.782 40.95 64.782 
C 36.176344 64.782 31.597562 66.678594 28.222078 70.054078 
C 24.846594 73.429562 22.95 78.008344 22.95 82.782 
C 22.95 87.555656 24.846594 92.134438 28.222078 95.509922 
C 31.597562 98.885406 36.176344 100.782 40.95 100.782 
L 40.95 100.782 
z
" clip-path="url(#p5995b6990e)" style="fill: none; stroke: #000000; stroke-width: 2; stroke-linejoin: miter"/>
   </g>
   <g id="line2d_1">
    <path d="M 171.45 177.282 
L 171.45 132.282 
L 249.392286 177.282 
L 171.45 222.282 
L 171.45 177.282 
M 249.392286 177.282 
" clip-path="url(#p5995b6990e)" style="fill: none; stroke: #000000; stroke-width: 2; stroke-linecap: round"/>
   </g>
   <g id="line2d_2">
    <path d="M 177.592786 154.782 
L 184.792786 154.782 
" clip-path="url(#p5995b6990e)" style="fill: none; stroke: #000000; stroke-width: 2; stroke-linecap: round"/>
   </g>
   <g id="line2d_3">
    <path d="M 177.592786 199.782 
L 184.792786 199.782 
" clip-path="url(#p5995b6990e)" style="fill: none; stroke: #000000; stroke-width: 2; stroke-linecap: round"/>
   </g>
   <g id="line2d_4">
    <path d="M 181.192786 203.382 
L 181.192786 196.182 
" clip-path="url(#p5995b6990e)" style="fill: none; stroke: #000000; stroke-width: 2; stroke-linecap: round"/>
   </g>
   <g id="line2d_5">
    <path d="M 148.95 154.782 
L 171.45 154.782 
" clip-path="url(#p5995b6990e)" style="fill: none; stroke: #000000; stroke-width: 2; stroke-linecap: round"/>
   </g>
   <g id="line2d_6">
    <path d="M 148.95 199.782 
L 171.45 199.782 
" clip-path="url(#p5995b6990e)" style="fill: none; stroke: #000000; stroke-width: 2; stroke-linecap: round"/>
   </g>
   <g id="line2d_7">
    <path d="M 249.392286 177.282 
L 271.892286 177.282 
" clip-path="url(#p5995b6990e)" style="fill: none; stroke: #000000; stroke-width: 2; stroke-linecap: round"/>
   </g>
   <g id="line2d_8">
    <path d="M 271.892286 177.282 
L 285.392286 177.282 
L 298.892286 177.282 
" clip-path="url(#p5995b6990e)" style="fill: none; stroke: #000000; stroke-width: 2; stroke-linecap: round"/>
   </g>
   <g id="line2d_9">
    <path d="M 148.95 154.782 
L 148.95 91.782 
L 148.95 28.782 
" clip-path="url(#p5995b6990e)" style="fill: none; stroke: #000000; stroke-width: 2; stroke-linecap: round"/>
   </g>
   <g id="line2d_10">
    <path d="M 148.95 28.782 
L 112.95 28.782 
L 109.95 37.782 
L 103.95 19.782 
L 97.95 37.782 
L 91.95 19.782 
L 85.95 37.782 
L 79.95 19.782 
L 76.95 28.782 
L 40.95 28.782 
" clip-path="url(#p5995b6990e)" style="fill: none; stroke: #000000; stroke-width: 2; stroke-linecap: round"/>
   </g>
   <g id="line2d_11">
    <path d="M 40.95 28.782 
L 40.95 64.782 
L 40.95 64.782 
M 40.95 100.782 
L 40.95 100.782 
L 40.95 136.782 
" clip-path="url(#p5995b6990e)" style="fill: none; stroke: #000000; stroke-width: 2; stroke-linecap: round"/>
   </g>
   <g id="line2d_12">
    <path d="M 44.55 91.782 
L 37.35 91.782 
" clip-path="url(#p5995b6990e)" style="fill: none; stroke: #000000; stroke-width: 2; stroke-linecap: round"/>
   </g>
   <g id="line2d_13">
    <path d="M 40.95 70.182 
L 40.95 77.382 
" clip-path="url(#p5995b6990e)" style="fill: none; stroke: #000000; stroke-width: 2; stroke-linecap: round"/>
   </g>
   <g id="line2d_14">
    <path d="M 44.55 73.782 
L 37.35 73.782 
" clip-path="url(#p5995b6990e)" style="fill: none; stroke: #000000; stroke-width: 2; stroke-linecap: round"/>
   </g>
   <g id="line2d_15">
    <path d="M 40.95 136.782 
L 40.95 151.182 
L 31.95 151.182 
L 49.95 151.182 
M 34.65 155.502 
L 47.25 155.502 
M 39.15 159.822 
L 42.75 159.822 
" clip-path="url(#p5995b6990e)" style="fill: none; stroke: #000000; stroke-width: 2; stroke-linecap: round"/>
   </g>
   <g id="line2d_16">
    <path d="M 148.95 28.782 
L 192.421143 28.782 
L 195.421143 19.782 
L 201.421143 37.782 
L 207.421143 19.782 
L 213.421143 37.782 
L 219.421143 19.782 
L 225.421143 37.782 
L 228.421143 28.782 
L 271.892286 28.782 
" clip-path="url(#p5995b6990e)" style="fill: none; stroke: #000000; stroke-width: 2; stroke-linecap: round"/>
   </g>
   <g id="line2d_17">
    <path d="M 271.892286 28.782 
L 271.892286 103.032 
L 271.892286 177.282 
" clip-path="url(#p5995b6990e)" style="fill: none; stroke: #000000; stroke-width: 2; stroke-linecap: round"/>
   </g>
   <g id="line2d_18">
    <path d="M 148.95 199.782 
L 135.45 199.782 
L 121.95 199.782 
" clip-path="url(#p5995b6990e)" style="fill: none; stroke: #000000; stroke-width: 2; stroke-linecap: round"/>
   </g>
   <g id="line2d_19">
    <path d="M 121.95 199.782 
L 121.95 163.782 
L 112.95 160.782 
L 130.95 154.782 
L 112.95 148.782 
L 130.95 142.782 
L 112.95 136.782 
L 130.95 130.782 
L 121.95 127.782 
L 121.95 91.782 
" clip-path="url(#p5995b6990e)" style="fill: none; stroke: #000000; stroke-width: 2; stroke-linecap: round"/>
   </g>
   <g id="line2d_20">
    <path d="M 121.95 91.782 
L 121.95 78.282 
L 121.95 64.782 
" clip-path="url(#p5995b6990e)" style="fill: none; stroke: #000000; stroke-width: 2; stroke-linecap: round"/>
   </g>
   <g id="line2d_21">
    <path d="M 121.95 199.782 
L 121.95 213.282 
L 121.95 226.782 
" clip-path="url(#p5995b6990e)" style="fill: none; stroke: #000000; stroke-width: 2; stroke-linecap: round"/>
   </g>
   <g id="line2d_22">
    <path d="M 121.95 226.782 
L 121.95 262.782 
L 130.95 265.782 
L 112.95 271.782 
L 130.95 277.782 
L 112.95 283.782 
L 130.95 289.782 
L 112.95 295.782 
L 121.95 298.782 
L 121.95 334.782 
" clip-path="url(#p5995b6990e)" style="fill: none; stroke: #000000; stroke-width: 2; stroke-linecap: round"/>
   </g>
   <g id="line2d_23">
    <path d="M 121.95 334.782 
L 121.95 334.782 
L 112.95 334.782 
L 130.95 334.782 
M 115.65 339.102 
L 128.25 339.102 
M 120.15 343.422 
L 123.75 343.422 
" clip-path="url(#p5995b6990e)" style="fill: none; stroke: #000000; stroke-width: 2; stroke-linecap: round"/>
   </g>
   <g id="line2d_24">
    <path d="M 197.430762 147.042 
L 197.430762 140.292 
L 197.430762 133.542 
" clip-path="url(#p5995b6990e)" style="fill: none; stroke: #000000; stroke-width: 2; stroke-linecap: round"/>
   </g>
   <g id="line2d_25">
    <path d="M 197.430762 207.522 
L 197.430762 221.022 
L 197.430762 234.522 
" clip-path="url(#p5995b6990e)" style="fill: none; stroke: #000000; stroke-width: 2; stroke-linecap: round"/>
   </g>
   <g id="line2d_26">
    <path d="M 197.430762 234.522 
L 197.430762 234.522 
L 188.430762 234.522 
L 206.430762 234.522 
M 191.130762 238.842 
L 203.730762 238.842 
M 195.630762 243.162 
L 199.230762 243.162 
" clip-path="url(#p5995b6990e)" style="fill: none; stroke: #000000; stroke-width: 2; stroke-linecap: round"/>
   </g>
   <g id="patch_3">
    <path d="M 148.95 31.482 
C 149.666048 31.482 150.352866 31.197511 150.859188 30.691188 
C 151.365511 30.184866 151.65 29.498048 151.65 28.782 
C 151.65 28.065952 151.365511 27.379134 150.859188 26.872812 
C 150.352866 26.366489 149.666048 26.082 148.95 26.082 
C 148.233952 26.082 147.547134 26.366489 147.040812 26.872812 
C 146.534489 27.379134 146.25 28.065952 146.25 28.782 
C 146.25 29.498048 146.534489 30.184866 147.040812 30.691188 
C 147.547134 31.197511 148.233952 31.482 148.95 31.482 
z
" clip-path="url(#p5995b6990e)" style="stroke: #000000; stroke-width: 2; stroke-linejoin: miter"/>
   </g>
   <g id="text_1">
    <!-- $R_G$ -->
    <g transform="translate(87.0125 13.582391) scale(0.125 -0.125)">
     <defs>
      <path id="DejaVuSans-Oblique-52" d="M 1613 4147 
L 1294 2491 
L 2106 2491 
Q 2584 2491 2879 2755 
Q 3175 3019 3175 3444 
Q 3175 3784 2976 3965 
Q 2778 4147 2406 4147 
L 1613 4147 
z
M 2772 2241 
Q 2972 2194 3105 2009 
Q 3238 1825 3413 1275 
L 3809 0 
L 3144 0 
L 2778 1197 
Q 2638 1659 2453 1815 
Q 2269 1972 1888 1972 
L 1191 1972 
L 806 0 
L 172 0 
L 1081 4666 
L 2503 4666 
Q 3150 4666 3495 4373 
Q 3841 4081 3841 3531 
Q 3841 3044 3547 2687 
Q 3253 2331 2772 2241 
z
" transform="scale(0.015625)"/>
      <path id="DejaVuSans-Oblique-47" d="M 3494 697 
L 3738 1919 
L 2700 1919 
L 2797 2438 
L 4453 2438 
L 4050 384 
Q 3634 156 3143 32 
Q 2653 -91 2156 -91 
Q 1278 -91 783 396 
Q 288 884 288 1753 
Q 288 2475 589 3126 
Q 891 3778 1422 4213 
Q 1756 4484 2153 4617 
Q 2550 4750 3034 4750 
Q 3472 4750 3873 4639 
Q 4275 4528 4641 4306 
L 4513 3634 
Q 4231 3928 3853 4083 
Q 3475 4238 3047 4238 
Q 2550 4238 2172 4048 
Q 1794 3859 1497 3463 
Q 1244 3125 1098 2667 
Q 953 2209 953 1734 
Q 953 1081 1287 751 
Q 1622 422 2284 422 
Q 2616 422 2925 492 
Q 3234 563 3494 697 
z
" transform="scale(0.015625)"/>
     </defs>
     <use xlink:href="#DejaVuSans-Oblique-52" transform="translate(0 0.09375)"/>
     <use xlink:href="#DejaVuSans-Oblique-47" transform="translate(69.482422 -16.3125) scale(0.7)"/>
    </g>
   </g>
   <g id="text_2">
    <!-- $v_{in}$ -->
    <g transform="translate(3.6 86.231219) scale(0.125 -0.125)">
     <defs>
      <path id="DejaVuSans-Oblique-76" d="M 459 3500 
L 1069 3500 
L 1581 525 
L 3256 3500 
L 3866 3500 
L 1875 0 
L 1100 0 
L 459 3500 
z
" transform="scale(0.015625)"/>
      <path id="DejaVuSans-Oblique-69" d="M 1172 4863 
L 1747 4863 
L 1606 4134 
L 1031 4134 
L 1172 4863 
z
M 909 3500 
L 1484 3500 
L 800 0 
L 225 0 
L 909 3500 
z
" transform="scale(0.015625)"/>
      <path id="DejaVuSans-Oblique-6e" d="M 3566 2113 
L 3156 0 
L 2578 0 
L 2988 2091 
Q 3016 2238 3031 2350 
Q 3047 2463 3047 2528 
Q 3047 2791 2881 2937 
Q 2716 3084 2419 3084 
Q 1956 3084 1622 2776 
Q 1288 2469 1184 1941 
L 800 0 
L 225 0 
L 903 3500 
L 1478 3500 
L 1363 2950 
Q 1603 3253 1940 3418 
Q 2278 3584 2650 3584 
Q 3113 3584 3367 3334 
Q 3622 3084 3622 2631 
Q 3622 2519 3608 2391 
Q 3594 2263 3566 2113 
z
" transform="scale(0.015625)"/>
     </defs>
     <use xlink:href="#DejaVuSans-Oblique-76" transform="translate(0 0.3125)"/>
     <use xlink:href="#DejaVuSans-Oblique-69" transform="translate(59.179688 -16.09375) scale(0.7)"/>
     <use xlink:href="#DejaVuSans-Oblique-6e" transform="translate(78.62793 -16.09375) scale(0.7)"/>
    </g>
   </g>
   <g id="text_3">
    <!-- $R_f$ -->
    <g transform="translate(204.358643 13.582391) scale(0.125 -0.125)">
     <defs>
      <path id="DejaVuSans-Oblique-66" d="M 3059 4863 
L 2969 4384 
L 2419 4384 
Q 2106 4384 1964 4261 
Q 1822 4138 1753 3809 
L 1691 3500 
L 2638 3500 
L 2553 3053 
L 1606 3053 
L 1013 0 
L 434 0 
L 1031 3053 
L 481 3053 
L 563 3500 
L 1113 3500 
L 1159 3744 
Q 1278 4363 1576 4613 
Q 1875 4863 2516 4863 
L 3059 4863 
z
" transform="scale(0.015625)"/>
     </defs>
     <use xlink:href="#DejaVuSans-Oblique-52" transform="translate(0 0.09375)"/>
     <use xlink:href="#DejaVuSans-Oblique-66" transform="translate(69.482422 -16.3125) scale(0.7)"/>
    </g>
   </g>
   <g id="patch_4">
    <path d="M 271.892286 179.982 
C 272.608335 179.982 273.295152 179.697511 273.801475 179.191188 
C 274.307797 178.684866 274.592286 177.998048 274.592286 177.282 
C 274.592286 176.565952 274.307797 175.879134 273.801475 175.372812 
C 273.295152 174.866489 272.608335 174.582 271.892286 174.582 
C 271.176238 174.582 270.489421 174.866489 269.983098 175.372812 
C 269.476775 175.879134 269.192286 176.565952 269.192286 177.282 
C 269.192286 177.998048 269.476775 178.684866 269.983098 179.191188 
C 270.489421 179.697511 271.176238 179.982 271.892286 179.982 
z
" clip-path="url(#p5995b6990e)" style="stroke: #000000; stroke-width: 2; stroke-linejoin: miter"/>
   </g>
   <g id="text_4">
    <!-- $R_2$ -->
    <g transform="translate(94.725 149.231219) scale(0.125 -0.125)">
     <defs>
      <path id="DejaVuSans-32" d="M 1228 531 
L 3431 531 
L 3431 0 
L 469 0 
L 469 531 
Q 828 903 1448 1529 
Q 2069 2156 2228 2338 
Q 2531 2678 2651 2914 
Q 2772 3150 2772 3378 
Q 2772 3750 2511 3984 
Q 2250 4219 1831 4219 
Q 1534 4219 1204 4116 
Q 875 4013 500 3803 
L 500 4441 
Q 881 4594 1212 4672 
Q 1544 4750 1819 4750 
Q 2544 4750 2975 4387 
Q 3406 4025 3406 3419 
Q 3406 3131 3298 2873 
Q 3191 2616 2906 2266 
Q 2828 2175 2409 1742 
Q 1991 1309 1228 531 
z
" transform="scale(0.015625)"/>
     </defs>
     <use xlink:href="#DejaVuSans-Oblique-52" transform="translate(0 0.09375)"/>
     <use xlink:href="#DejaVuSans-32" transform="translate(69.482422 -16.3125) scale(0.7)"/>
    </g>
   </g>
   <g id="text_5">
    <!-- $V_{REF}$ -->
    <g transform="translate(92.725 81.731219) scale(0.125 -0.125)">
     <defs>
      <path id="DejaVuSans-Oblique-56" d="M 1319 0 
L 500 4666 
L 1119 4666 
L 1797 653 
L 4063 4666 
L 4750 4666 
L 2053 0 
L 1319 0 
z
" transform="scale(0.015625)"/>
      <path id="DejaVuSans-Oblique-45" d="M 1081 4666 
L 4031 4666 
L 3928 4134 
L 1606 4134 
L 1338 2753 
L 3566 2753 
L 3463 2222 
L 1234 2222 
L 909 531 
L 3284 531 
L 3181 0 
L 172 0 
L 1081 4666 
z
" transform="scale(0.015625)"/>
      <path id="DejaVuSans-Oblique-46" d="M 1081 4666 
L 3756 4666 
L 3653 4134 
L 1606 4134 
L 1338 2759 
L 3188 2759 
L 3084 2228 
L 1234 2228 
L 800 0 
L 172 0 
L 1081 4666 
z
" transform="scale(0.015625)"/>
     </defs>
     <use xlink:href="#DejaVuSans-Oblique-56" transform="translate(0 0.09375)"/>
     <use xlink:href="#DejaVuSans-Oblique-52" transform="translate(68.408203 -16.3125) scale(0.7)"/>
     <use xlink:href="#DejaVuSans-Oblique-45" transform="translate(117.045898 -16.3125) scale(0.7)"/>
     <use xlink:href="#DejaVuSans-Oblique-46" transform="translate(161.274414 -16.3125) scale(0.7)"/>
    </g>
   </g>
   <g id="patch_5">
    <path d="M 121.95 202.482 
C 122.666048 202.482 123.352866 202.197511 123.859188 201.691188 
C 124.365511 201.184866 124.65 200.498048 124.65 199.782 
C 124.65 199.065952 124.365511 198.379134 123.859188 197.872812 
C 123.352866 197.366489 122.666048 197.082 121.95 197.082 
C 121.233952 197.082 120.547134 197.366489 120.040812 197.872812 
C 119.534489 198.379134 119.25 199.065952 119.25 199.782 
C 119.25 200.498048 119.534489 201.184866 120.040812 201.691188 
C 120.547134 202.197511 121.233952 202.482 121.95 202.482 
z
" clip-path="url(#p5995b6990e)" style="stroke: #000000; stroke-width: 2; stroke-linejoin: miter"/>
   </g>
   <g id="text_6">
    <!-- $R_1$ -->
    <g transform="translate(94.725 284.231219) scale(0.125 -0.125)">
     <defs>
      <path id="DejaVuSans-31" d="M 794 531 
L 1825 531 
L 1825 4091 
L 703 3866 
L 703 4441 
L 1819 4666 
L 2450 4666 
L 2450 531 
L 3481 531 
L 3481 0 
L 794 0 
L 794 531 
z
" transform="scale(0.015625)"/>
     </defs>
     <use xlink:href="#DejaVuSans-Oblique-52" transform="translate(0 0.09375)"/>
     <use xlink:href="#DejaVuSans-31" transform="translate(69.482422 -16.3125) scale(0.7)"/>
    </g>
   </g>
   <g id="text_7">
    <!-- $v_{cc}$ -->
    <g transform="translate(188.743262 127.342391) scale(0.125 -0.125)">
     <defs>
      <path id="DejaVuSans-Oblique-63" d="M 3431 3366 
L 3316 2797 
Q 3109 2947 2876 3022 
Q 2644 3097 2394 3097 
Q 2119 3097 1870 3000 
Q 1622 2903 1453 2725 
Q 1184 2453 1037 2087 
Q 891 1722 891 1331 
Q 891 859 1127 628 
Q 1363 397 1844 397 
Q 2081 397 2348 469 
Q 2616 541 2906 684 
L 2797 116 
Q 2547 13 2283 -39 
Q 2019 -91 1741 -91 
Q 1044 -91 669 257 
Q 294 606 294 1253 
Q 294 1797 489 2255 
Q 684 2713 1069 3078 
Q 1331 3328 1684 3456 
Q 2038 3584 2456 3584 
Q 2700 3584 2940 3529 
Q 3181 3475 3431 3366 
z
" transform="scale(0.015625)"/>
     </defs>
     <use xlink:href="#DejaVuSans-Oblique-76" transform="translate(0 0.3125)"/>
     <use xlink:href="#DejaVuSans-Oblique-63" transform="translate(59.179688 -16.09375) scale(0.7)"/>
     <use xlink:href="#DejaVuSans-Oblique-63" transform="translate(97.666016 -16.09375) scale(0.7)"/>
    </g>
   </g>
  </g>
 </g>
 <defs>
  <clipPath id="p5995b6990e">
   <rect x="9.152886" y="3.6" width="303.536515" height="356.004"/>
  </clipPath>
 </defs>
</svg>
